<svg width="16" height="16" viewBox="0 0 16 16" xmlns="http://www.w3.org/2000/svg">
  <path fill-rule="evenodd" clip-rule="evenodd" d="M13,7 L13,8 L3,8 L3,7 L13,7 Z M6,11 L6,12 L10,12 L10,11 L6,11 Z M4,2 L12,2 L12,0 L13,0 L13,2 L15.5,2 C15.7763672,2 16,2.22387695 16,2.5 L16,15.5 C16,15.776123 15.7763672,16 15.5,16 L0.5,16 C0.223632812,16 0,15.776123 0,15.5 L0,2.5 C0,2.22387695 0.223632812,2 0.5,2 L3,2 L3,0 L4,0 L4,2 Z M12,5 L13,5 L13,3 L14.75,3 C14.8876953,3 15,3.11181641 15,3.25 L15,14.75 C15,14.8881836 14.8876953,15 14.75,15 L1.25,15 C1.11230469,15 1,14.8881836 1,14.75 L1,3.25 C1,3.11181641 1.11230469,3 1.25,3 L3,3 L3,5 L4,5 L4,3 L12,3 L12,5 Z" fill="currentColor"/>
</svg>
