<?xml version="1.0" encoding="UTF-8"?>
<svg width="11px" height="10px" viewBox="0 0 11 10" version="1.1" xmlns="http://www.w3.org/2000/svg" xmlns:xlink="http://www.w3.org/1999/xlink">
    <title>Vector</title>
    <g id="Page-1" stroke="none" stroke-width="1" fill="none" fill-rule="evenodd">
        <g id="Multichart" transform="translate(-1308, -21)" fill="currentColor" fill-rule="nonzero">
            <g id="Row" transform="translate(24, 11)">
                <g transform="translate(1187, 0)" id="Container">
                    <g transform="translate(37, 0)">
                        <g id="neutral-actions" transform="translate(52, 1.5)">
                            <g id="technical/refresh" transform="translate(8, 8)">
                                <path d="M8.50038856,2.40814353 C7.77392912,1.54164389 6.76555741,0.958612394 5.65216482,0.761326242 C4.53877255,0.564040089 3.39146461,0.765098807 2.41150619,1.32923203 C1.43154778,1.89336522 0.681522572,2.78454512 0.293002421,3.84643846 C-0.0955177303,4.9083313 -0.0977203902,6.07312137 0.286780784,7.13647566 C0.671281958,8.19983094 1.41793121,9.09384071 2.39574909,9.66167652 C3.37356697,10.2295117 4.52010617,10.4349082 5.63423669,10.2418346 C6.74836755,10.0487611 7.758937,9.46954715 8.4886688,8.60580157 L7.96350145,8.16211657 C7.20683354,9.05686855 6.07595998,9.62500006 4.81239215,9.62500006 C2.53421769,9.62500006 0.687392145,7.77817418 0.687392145,5.50000003 C0.687392145,3.22182523 2.53421769,1.375 4.81239215,1.375 C6.91494751,1.375 8.65009469,2.948065 8.90511674,4.98148065 L8.14931822,4.22568213 C8.01507497,4.09143921 7.79742503,4.09143921 7.66318178,4.22568213 C7.52893919,4.35992473 7.52893919,4.57757532 7.66318178,4.71181792 L9.28125,6.32988647 L10.8993182,4.71181792 C11.0335615,4.57757532 11.0335615,4.35992473 10.8993182,4.22568213 C10.765075,4.09143921 10.547425,4.09143921 10.4131818,4.22568213 L9.60261083,5.03625309 C9.50933397,4.07264235 9.1269871,3.15553185 8.50038856,2.40814353 Z" id="Vector"></path>
                            </g>
                        </g>
                    </g>
                </g>
            </g>
        </g>
    </g>
</svg>
